<svg width="50" height="50" viewBox="0 0 50 50" fill="none" xmlns="http://www.w3.org/2000/svg">
<circle cx="25" cy="25" r="25" fill="white"/>
<path d="M8.31289 10.6628C18.5391 -1.23762 37.5028 1.11094 44.5904 15.0171H27.5535C24.4845 15.0171 22.5027 14.9474 20.3559 16.0768C17.8333 17.406 15.9303 19.8682 15.2648 22.7594L8.31289 10.6647V10.6628Z" fill="#EA4335"/>
<path d="M17.6811 24.9998C17.6811 29.0333 20.9609 32.315 24.9923 32.315C29.0256 32.315 32.3036 29.0333 32.3036 24.9998C32.3036 20.9664 29.0238 17.6847 24.9923 17.6847C20.959 17.6847 17.6811 20.9664 17.6811 24.9998Z" fill="#4285F4"/>
<path d="M27.8303 34.5756C23.7255 35.7948 18.9241 34.4417 16.2933 29.9004C14.284 26.4354 8.97838 17.1915 6.56758 12.9894C-1.87847 25.933 5.4016 43.5756 20.7335 46.586L27.8284 34.5756H27.8303Z" fill="#34A853"/>
<path d="M31.7829 17.6847C33.4358 19.2277 34.518 21.2847 34.8535 23.5209C35.189 25.7571 34.7581 28.0411 33.6309 30.0013C31.8874 33.008 26.3196 42.4059 23.621 46.9563C39.4186 47.9299 50.9373 32.447 45.7344 17.6828H31.7829V17.6847Z" fill="#FBBC05"/>
</svg>
