<svg width="134" height="44" viewBox="0 0 134 44" fill="none" xmlns="http://www.w3.org/2000/svg">
<path fill-rule="evenodd" clip-rule="evenodd" d="M16.9768 0C17.6864 3.72581 14.5994 7.9129 5.79937 14.7258C1.42303 18.2151 -4.70385 26.7903 5.79937 33.1774C14.0292 36.955 16.7994 41.5161 16.4445 44C16.4643 43.9753 16.4841 43.9506 16.504 43.9257C17.917 42.1613 19.7637 39.8553 16.0897 35.3064C15.3975 34.4495 14.5523 33.617 13.6995 32.7771C9.96222 29.0963 6.08138 25.2741 14.3155 18.629C24.4284 10.4677 22.4767 4.96774 16.9768 0ZM25.3155 14.1935C26.2026 15.672 24.6768 18.4516 17.8639 24.8387C16.8548 25.7847 16.1452 27.3226 19.4607 30.3387C19.4607 30.3387 25.0198 26.0215 26.2026 22.5322C29.3962 27.1451 30.1613 28.3871 22.7097 34.2419C23.2419 35.6613 25.6704 37.9677 26.3801 38.5C26.8059 38.8193 44.4768 25.9032 25.3155 14.1935Z" fill="url(#paint0_linear_1192_7)"/>
<path d="M50.2451 11.6H65.7011V15.184H54.5331V21.424H64.6771V24.976H54.5331V34H50.2451V11.6ZM73.4134 24.784C73.4134 26.6187 73.9147 28.0587 74.9174 29.104C75.92 30.1493 77.264 30.672 78.9494 30.672C80.6134 30.672 81.936 30.16 82.9174 29.136C83.8987 28.0907 84.3894 26.64 84.3894 24.784V11.6H88.6774V24.784C88.6774 26.7467 88.2827 28.4427 87.4934 29.872C86.7254 31.28 85.6054 32.368 84.1334 33.136C82.6827 33.904 80.9547 34.288 78.9494 34.288C76.9227 34.288 75.1734 33.904 73.7014 33.136C72.2294 32.368 71.0987 31.28 70.3094 29.872C69.52 28.4427 69.1254 26.7467 69.1254 24.784V11.6H73.4134V24.784ZM108.449 17.136C107.66 16.6453 106.849 16.24 106.017 15.92C105.206 15.6 104.438 15.376 103.713 15.248C102.988 15.0987 102.326 15.024 101.729 15.024C100.726 15.024 99.9155 15.216 99.2969 15.6C98.6995 15.984 98.4009 16.5493 98.4009 17.296C98.4009 17.9787 98.6142 18.5333 99.0409 18.96C99.4889 19.3867 100.065 19.7387 100.769 20.016C101.494 20.2933 102.284 20.56 103.137 20.816C103.99 21.072 104.844 21.36 105.697 21.68C106.55 21.9787 107.329 22.3733 108.033 22.864C108.758 23.3547 109.334 23.984 109.761 24.752C110.188 25.52 110.401 26.48 110.401 27.632C110.401 29.0187 110.028 30.2027 109.281 31.184C108.534 32.1653 107.51 32.9227 106.209 33.456C104.929 33.9893 103.468 34.256 101.825 34.256C100.63 34.256 99.4569 34.1067 98.3049 33.808C97.1742 33.488 96.0969 33.0613 95.0729 32.528C94.0702 31.9947 93.1635 31.376 92.3529 30.672L94.1449 27.184C94.9129 27.888 95.7449 28.496 96.6409 29.008C97.5369 29.4987 98.4329 29.8827 99.3289 30.16C100.246 30.416 101.1 30.544 101.889 30.544C103.105 30.544 104.044 30.3093 104.705 29.84C105.388 29.3707 105.729 28.7093 105.729 27.856C105.729 27.152 105.505 26.5867 105.057 26.16C104.63 25.7333 104.065 25.3813 103.361 25.104C102.657 24.8053 101.868 24.5493 100.993 24.336C100.14 24.1013 99.2862 23.8347 98.4329 23.536C97.5795 23.216 96.7902 22.8213 96.0649 22.352C95.3609 21.8613 94.7849 21.2427 94.3369 20.496C93.9102 19.7493 93.6969 18.8 93.6969 17.648C93.6969 16.3467 94.0489 15.2267 94.7529 14.288C95.4569 13.328 96.4275 12.592 97.6649 12.08C98.9235 11.5467 100.396 11.28 102.081 11.28C103.574 11.28 105.025 11.4933 106.433 11.92C107.862 12.3467 109.11 12.912 110.177 13.616L108.449 17.136ZM115.103 11.6H131.519V15.184H119.391V20.976H130.271V24.528H119.391V30.416H131.903V34H115.103V11.6Z" fill="url(#paint1_linear_1192_7)"/>
<defs>
<linearGradient id="paint0_linear_1192_7" x1="25.7853" y1="14.1935" x2="25.7853" y2="38.5057" gradientUnits="userSpaceOnUse">
<stop offset="0.0408264" stop-color="#FFD013"/>
<stop offset="1" stop-color="#C07906"/>
</linearGradient>
<linearGradient id="paint1_linear_1192_7" x1="72" y1="3" x2="91" y2="42" gradientUnits="userSpaceOnUse">
<stop stop-color="#FFCF13"/>
<stop offset="1" stop-color="#FF7826"/>
</linearGradient>
</defs>
</svg>
