<svg xmlns="http://www.w3.org/2000/svg" width="68" height="88" viewBox="0 0 68 88" fill="none">
<path fill-rule="evenodd" clip-rule="evenodd" d="M33.7376 0C35.148 7.40423 29.013 15.7252 11.525 29.2643C2.82796 36.1984 -9.34787 53.2399 11.525 65.9329C27.88 73.44 33.3851 82.5042 32.6799 87.4404C32.7191 87.3914 32.7585 87.3422 32.7981 87.2928C35.6062 83.7863 39.2761 79.2036 31.9748 70.1639C30.5992 68.4608 28.9195 66.8064 27.2248 65.1374C19.7977 57.8226 12.0854 50.2268 28.449 37.0211C48.5461 20.8024 44.6676 9.8723 33.7376 0ZM50.3091 28.2066C52.072 31.1448 49.0397 36.6685 35.5006 49.3615C33.4953 51.2414 32.085 54.2977 38.6738 60.2915C38.6738 60.2915 49.7214 51.7121 52.0719 44.7779C58.4185 53.9451 59.9389 56.4131 45.1305 68.0484C46.1882 70.869 51.0143 75.4526 52.4246 76.5103C53.2708 77.145 88.388 51.477 50.3091 28.2066Z" fill="url(#paint0_linear_22124_12725)"/>
<defs>
<linearGradient id="paint0_linear_22124_12725" x1="51.2426" y1="28.2066" x2="51.2426" y2="76.5217" gradientUnits="userSpaceOnUse">
<stop offset="0.0408264" stop-color="#FFD013"/>
<stop offset="1" stop-color="#C07906"/>
</linearGradient>
</defs>
</svg>
